# xmcd
#
# Track frame offsets: 
#        150
#        13503
#        22244
#        46276
#        56959
#        65700
#        78567
#        89007
#        96777
#        106731
#        116685
#        137078
#        155042
#
# Disc length: 2258 seconds
#
# Revision: 0
# Processed by: cddbd v1.5.2PL0 Copyright (c) Steve Scherf et al.
# Submitted via: ExactAudioCopy v1.0b3
#
DISCID=b708d00d
DTITLE=Andreas Rohde - Woodpecker
DYEAR=1980
DGENRE=Folk
TTITLE0=Big Brenda
TTITLE1=Hard to keep a secret
TTITLE2=Neecco 16
TTITLE3=Sunny side up
TTITLE4=Windmill
TTITLE5=Mahagony
TTITLE6=Approaching deep gap
TTITLE7=Cross country
TTITLE8=Sister Susan
TTITLE9=Playing Domino
TTITLE10=You and me
TTITLE11=Le matin français
TTITLE12=Woodpecker
EXTD=
EXTT0=
EXTT1=
EXTT2=
EXTT3=
EXTT4=
EXTT5=
EXTT6=
EXTT7=
EXTT8=
EXTT9=
EXTT10=
EXTT11=
EXTT12=
PLAYORDER=
